<?xml version="1.0" encoding="UTF-8"?>
<svg xmlns="http://www.w3.org/2000/svg" width="86" height="46.664" viewBox="0 0 86 46.664">
  <defs>
    <style>.a,.b{fill:#fff;}.b{fill-rule:evenodd;}</style>
  </defs>
  <g transform="translate(-142.314 -145.614)">
    <path class="a" d="M.04,27.288,0,.233A1.44,1.44,0,0,1,.836.552,23.663,23.663,0,0,1,2.868,2.977Q4.023,1.35,4.3,1.032A2.805,2.805,0,0,1,6.373,0H7.966q4.183,0,4.979,2.787a10.88,10.88,0,0,1,.239,2.708l.04,12.422q0,2.986-1.334,4.22a6.251,6.251,0,0,1-4.322,1.234H7.011a3.851,3.851,0,0,1-2.549-.8l-.04,4.75A2.488,2.488,0,0,1,3.764,29.1a2.267,2.267,0,0,1-1.732.7Q.04,29.8.04,27.288ZM4.666,7.08l-.1,9.121q-.04,3.027,1.715,3.027h.438q1.913,0,1.913-2.151V6.164q0-2.031-1.745-2.031h-.4Q4.706,4.133,4.666,7.08ZM78.352,23.366q-5.815,0-5.775-5.931l.08-11.5Q72.7,0,78.711,0H80.3q4.341,0,5.337,3.145a9.53,9.53,0,0,1,.319,2.786l.04,11.5q0,5.931-6.094,5.931ZM77.31,6.483V16.719q0,2.51,1.723,2.509h.441q1.762,0,1.8-2.509l.167-10.037q.039-2.549-1.709-2.549h-.4Q77.31,4.133,77.31,6.483ZM32.089,23.366a5.791,5.791,0,0,1-4.342-1.413,6.229,6.229,0,0,1-1.354-4.438V5.931Q26.393,0,32.447,0H34.04q5.815,0,5.815,5.928V9.508q0,2.825-1.818,2.824H31.159l-.106,4.383a5.408,5.408,0,0,0,.2,1.753,1.413,1.413,0,0,0,1.434.8q1.911,0,2.549-2.829a2.269,2.269,0,0,1,2.31-2.071,2.021,2.021,0,0,1,2.31,2.31,6.606,6.606,0,0,1-2.091,4.6,6.268,6.268,0,0,1-4.561,2.09ZM31.159,6.69V9.366h3.9V6.69q.039-2.556-1.711-2.557h-.4Q31.2,4.133,31.159,6.69ZM14.66,20.777,14.74.229a1.2,1.2,0,0,1,.8.358,19.426,19.426,0,0,1,1.912,2.669q1.792-1.945,1.951-2.1A3.877,3.877,0,0,1,21.87,0a4.877,4.877,0,0,1,2.908.8,2.941,2.941,0,0,1,1.235,2.622,2.988,2.988,0,0,1-.638,1.788,1.929,1.929,0,0,1-1.593.755,1.819,1.819,0,0,1-1.434-.637,2.641,2.641,0,0,1-.637-1.554,2.8,2.8,0,0,0-2.271,1.672,8.719,8.719,0,0,0-.358,2.987V20.9a2.365,2.365,0,0,1-.717,1.772,2.47,2.47,0,0,1-1.792.7Q14.659,23.366,14.66,20.777Zm28.584,2.355a1.2,1.2,0,0,1-1.274-.876,6.408,6.408,0,0,1-.16-1.752V3.018q0-2.788,1.753-2.789l3.028,0-.28,18.756q2.272,0,3.309-3.543a20.781,20.781,0,0,0,.757-5.375l.159-7.6A2.609,2.609,0,0,1,51.252.717,2.451,2.451,0,0,1,54.7.7a2.346,2.346,0,0,1,.617,1.772l-.2,8.361q-.28,12.3-8.564,12.3Z" transform="translate(142.314 162.479)"></path>
    <path class="b" d="M526.256,151.772a9.63,9.63,0,0,0-.341-2.893q-1.065-3.265-5.708-3.265h-1.7q-5.907,0-6.424,5.194a1.766,1.766,0,0,0,1.317,1.673,2.158,2.158,0,0,0,2.553-1.345,3.157,3.157,0,0,1,.115-.378c.008-.021.016-.04.024-.06a3.343,3.343,0,0,1,3.115-2.067,3.3,3.3,0,0,1,3.343,3.246v3.934a3.3,3.3,0,0,1-3.343,3.246,3.393,3.393,0,0,1-2.049-.682h0c-1.214-.851-1.3-1.883-3.294-1.883-1.238,0-1.71.733-1.849,1.912l-.068,26.445q-.043,6.158,6.177,6.158h1.662q6.517,0,6.517-6.158Zm-3.781,31.413a3.547,3.547,0,0,1-1.077,2.657,3.709,3.709,0,0,1-2.689,1.045q-3.047,0-3.045-3.821l.072-17.5q0-4.119,2.69-4.179l4.122-.12Z" transform="translate(-312.9)"></path>
    <path class="a" d="M4.54,20.735a2.363,2.363,0,0,1-.718,1.771,2.471,2.471,0,0,1-1.792.7Q0,23.2,0,20.655L.048,2.866Q.05.12,1.842.08L4.589,0Z" transform="translate(203.909 162.473)"></path>
  </g>
</svg>
